<?xml version="1.0" encoding="utf-8"?>
<!-- Generator: Adobe Illustrator 16.0.0, SVG Export Plug-In . SVG Version: 6.00 Build 0)  -->
<!DOCTYPE svg PUBLIC "-//W3C//DTD SVG 1.1//EN" "http://www.w3.org/Graphics/SVG/1.1/DTD/svg11.dtd">
<svg version="1.1" xmlns="http://www.w3.org/2000/svg" xmlns:xlink="http://www.w3.org/1999/xlink" x="0px" y="0px" width="792px"
	 height="612px" viewBox="0 0 792 612" enable-background="new 0 0 792 612" xml:space="preserve">
<g id="Layer_1" display="none">
	<g id="Layer_2" display="inline">
		<path d="M252.846,224.841c0,0,42.966-57.056,68.335-44.506c25.381,12.551-5.059,34.156,19.528,45.447
			c24.575,11.292,61.688-2.798,53.476-35.426c-8.212-32.627-22.803-9.483-34.192-26.981c-11.413-17.5,56.03-56.091,56.03-56.091
			s41.07,81.276,52.74,60.013c14.14-25.723,39.007-52.118,64.828-12.525c0,0,22.156,29.474,3.006,41.963
			c-19.147,12.489-35.646,5.414-42.843,18.978c-7.162,13.589,46.24,50.017,46.24,50.017s-36.501,58.792-60.197,43.37
			c-23.694-15.435,4.326-41.122-31.82-48.759c-15.738-2.798-42.013,6.586-46.645,28.766c-1.589,33.104,19.601,24.697,34.106,42.515
			c14.554,17.779-54.723,55.247-54.723,55.247s-19.356-47.989-46.57-56.861c-27.214-8.908-10.913,26.226-35.646,30.832
			c-24.733,4.839-58.852-29.279-42.281-58.485c16.607-29.279,40.033-0.562,42.063-23.83
			C300.383,254.988,252.846,224.841,252.846,224.841z"/>
	</g>
	<g id="Layer_4">
		<path display="inline" d="M354.716,282.925c0.053,0.007,0.103,0.018,0.156,0.024"/>
		<g display="inline">
			<path d="M378.215,270.292c-13.61,4.026-32.596,17.456-44.814,5.985c-1.698-5.855,4.196-9.151,6.572-13.603
				c0.228-11.553-14.181-14.574-22.391-13.924c-16.462,1.29-13.296,13.358-3.863,24.928c-12.587,13.055-32.065-3.213-46.261-6.736
				c-6.276,13.004-14.503,31.388-7.744,45.5c1.161,0.446,2.816,0.715,3.429,0.771c12.588-10.26,21.067-6.43,22.612,4.529
				c2.108,14.912-6.209,24.26-24.067,15.212c-8.104,11.479,1.23,30.773,11.507,39.218c12.32-4.486,25.557-15.317,39.321-10.641
				c5.458,11.675-12.533,15.145-0.92,24.333c7.203,5.706,23.96,7.065,29.461-4.346c-0.81-6.543-8.333-10.105-8.521-16.61
				c14.035-10,31.573,5.523,46.132,8.42c3.351-13.442,13.933-33.785,1.179-44.358c-5.67,0.357-9.914,5.123-15.439,5.782
				c-15.949-9.476,0.72-46.228,16.796-25.408c14.546-4.578,0.479-28.672-2.816-39.027L378.215,270.292z"/>
			<path d="M477.36,246.894c10.851-3.528,33.592-16.199,23.327-29.011c-25.855,0.079-10.775-29.399,6.088-30.456
				c8.563,1.037,6.544,11.05,10.578,16.307c17.56,4.782,21.29-22.848,25.92-35.475c-17.782-2.772-57.848-23.005-23.187-35.506
				c4.947-15.29-15.396-28.098-26.047-23.146c-7.482,3.484-3.818,11.196-8.953,18.723c-15.573,0.767-21.849-18.062-27.621-29.568
				c-12.725,4.735-32.793,12.722-33.248,28.168c6.164,7.094,18.692,0.382,22.28,8.479c4.015,9.08-18.738,29.388-25.168,20.269
				c-3.979-5.038-1.231-14.668-9.352-16.202c-12.841,5.21-19.792,19.917-22.647,32.699c12.688,5.816,31.333,5.788,39.347,19.765
				c0.465,2.921-2.1,5.403-4.316,6.952c-5.563,1.558-12.438,1.754-16.114,6.878c-0.575,12.91,14.136,22.891,21.888,21.66
				c11.192-1.781,4.728-24.075,18.578-19.671C457.564,210.573,471.309,238.776,477.36,246.894z"/>
			<path d="M267.457,260.169c15.101,3.272,22.848,16.044,37.96,9.178c-9.43-11.564-4.298-26.076,12.164-27.37
				c8.21-0.649,28.266,4.291,28.038,15.844c-0.39,4.456-4.07,6.489-5.419,12.804c5.709,12.379,24.405-3.083,38.015-7.11
				c-5.159-12.375-14.908-24.5-13.366-38.546c6.11-8.627,13.952,3.563,21.388,2.226c10.48-7.059,8.093-32.289-6.005-33.182
				c-5.832,1.601-11.01,8.447-17.602,5.038c-9.583-14.05-1.231-32.797,2.611-47.591c-12.064-10.885-52.922-16.45-31.023,7.991
				c0,0.448-0.272,1.541-0.688,2.729c-9.1,9.159-39.281,4.632-23.901-11.974c0.177-2.45,0.952-5.699-1.542-7.28
				c-12.455-1.962-27.619,0.488-37.312,8.082c5.198,12.65,13.673,29.56,6.233,42.164c-1.4,0.248-2.466,0.546-3.138,0.739
				c-11.294-9.634-16.536-9.705-20.996,0.783c-4.105,9.662,0.17,43.08,20.811,21.506
				C289.688,220.801,269.53,248.533,267.457,260.169z"/>
			<path d="M426.435,385.258c2.753-5.734-3.813-9.98-5.062-15.113c0.6-13.452,18.701-12.862,24.799-8.683
				c13.72,9.431-4.864,16.826-0.025,28.916c13.267,6.775,28.63,0.345,41.69-4.182c0.315-0.37,0.69-0.73,0.942-1.266
				c-6.303-14.378-15.203-29.981-11.801-46.406c6.934-8.437,14.152,3.73,21.177,5.575c23.021-3.474,7.473-49.325-11.464-28.307
				c-17.955-11.631-1.867-38.291,6.327-52.526c-0.399-0.661-0.928-1.467-1.702-1.836c-14.425-10.209-59.558-14.169-43.641,14.228
				c-3.053,12.144-20.699,18.73-28.45,12.265c-9.157-7.625,2.914-13.249,5.896-22.486c-9.379-13.74-28.138,0.94-39.958,4.876
				c3.288,10.354,15.962,37.968-3.61,42.719c-16.954-14.339-24.507,6.377-14,16.583c5.379,1.049,6.154-5.646,15.459-5.156
				c14.723,10.366,5.776,35.423,2.43,48.865C397.457,379.728,412.557,392.768,426.435,385.258z"/>
		</g>
	</g>
	<g id="Layer_3">
		<path display="inline" d="M327.33,180.986l49.191,16.397l-49.191-49.191l49.191,16.397L344.71,99l48.208,49.191L441.125,99
			l-31.809,65.589l49.19-16.397l-49.19,49.191l49.19-16.397l-65.589,65.589L327.33,180.986z M347.662,309.867l19.021,18.692
			l19.021-19.021l-19.021-18.693L347.662,309.867z M345.039,254.773l21.644,21.316l19.021-19.021l-22.3-21.972
			C356.517,240.016,350.286,246.575,345.039,254.773z M340.12,302.325l19.021-19.021l-19.35-19.349
			c-4.263,8.527-7.214,18.365-8.854,28.859L340.12,302.325z M340.12,317.41l-9.182,9.184c1.64,10.493,4.591,20.332,8.854,28.859
			l19.35-19.351L340.12,317.41z M438.176,309.867l-19.021-19.02l-19.021,19.02l19.021,18.692L438.176,309.867z M373.898,283.304
			l19.021,19.021l19.021-19.021l-19.021-18.692L373.898,283.304z M445.719,317.41l-19.021,19.021l19.349,19.35
			c4.264-8.525,7.215-18.365,8.854-28.859L445.719,317.41z M419.153,276.089l21.316-21.316c-4.919-8.199-11.15-14.758-18.036-19.676
			l-21.973,21.972L419.153,276.089z M366.683,343.646l-21.316,21.315c5.248,7.87,11.478,14.429,18.365,19.348l21.972-21.973
			L366.683,343.646z M392.919,369.881l-20.005,20.006c6.232,2.623,12.791,4.264,20.005,4.264s13.774-1.641,20.004-4.264
			L392.919,369.881z M445.719,302.325l9.181-9.183c-1.64-10.494-4.591-20.333-8.854-28.859l-19.349,19.35L445.719,302.325z
			 M411.939,336.104l-19.021-18.692l-19.021,19.021l19.021,19.021L411.939,336.104z M440.799,364.963l-21.646-21.315l-19.021,19.021
			l22.302,21.645C429.319,379.392,435.552,372.833,440.799,364.963z"/>
	</g>
</g>
<g id="Layer_2_1_" display="none">
	<path display="inline" d="M518.26,284.39c-3.906-2.131-11.009-2.131-15.627-6.749c-4.262-4.261-6.747-31.252-7.458-39.066
		c-0.354-8.168,1.776-27.701-6.393-34.094c-8.168-6.749-30.188-16.692-44.038-22.73c-5.682-2.486-11.01-4.972-16.336-7.458
		c1.42-3.907,2.13-7.813,2.13-12.075c0-17.047-11.01-31.253-26.28-36.225c4.972-6.038,8.878-8.169,8.878-10.299
		c0-2.131-4.972-5.683-7.103-6.393c-1.775-0.355-7.458,4.617-11.01,11.72c-0.355,1.065-1.065,1.776-1.42,2.841
		c-0.71,0-1.065,0-1.776,0c-21.309,0-38.355,17.047-38.355,38.356c0,4.972,1.065,9.234,2.486,13.496
		c-18.112,8.168-41.907,19.178-49.72,24.15c-12.43,7.458-15.627,17.047-14.562,23.794c0.71,4.262,4.262,6.038,4.262,8.524
		c0,2.841,0,13.851,0.355,18.113c0,4.261-1.776,14.206-2.486,15.626c-1.065,2.131-4.973,4.262-11.72,4.262
		c-11.365,0-15.271,7.103-13.14,14.916c1.42,6.038,8.168,8.524,17.046,15.271c8.879,6.748,14.562,9.589,17.403,4.262
		c2.841-5.683,3.551-24.505,3.906-28.767c0.355-4.262-0.355-29.123-0.355-33.384c0-3.551,1.42-5.682,3.196-2.131
		c1.775,3.552,6.393,1.776,9.234,3.907c3.196,1.776,4.972,7.103,5.327,16.337c0.355,9.233,7.103,11.72,10.654,11.72
		c3.551-0.355,8.524-3.907,11.01-3.552c2.486,0.355,3.551,6.748,4.262,13.14c0.71,6.393-0.71,22.375-4.262,32.673
		c-3.551,10.3-13.851,20.954-22.375,22.73c-7.103,1.42-14.916,5.682-17.402,13.14c-2.13,6.393-0.71,20.243,17.757,28.767
		c15.271,7.104,33.384,9.234,51.852,2.131c16.337-6.392,18.112-19.177,16.337-25.926c-2.131-6.748-8.523-9.943-14.917-14.562
		c-4.617-3.55-7.103-7.813-8.168-13.495c-1.421-8.168-2.486-46.168,1.421-49.01c3.906-2.485,14.206,12.431,26.28,13.141
		c12.075,0.71,10.654-11.719,19.533-23.439c8.879-11.72,29.122-2.842,38.355-4.973c9.234-2.13,9.234-15.271,11.365-20.598
		c3.906-8.523,14.916-9.943,14.916-3.906s0.355,68.543,0,72.095s3.197,3.196,11.721,2.841c6.747-0.354,9.943,1.421,22.374,0.711
		C528.914,313.156,537.792,293.978,518.26,284.39z"/>
	<path display="inline" d="M417.754,354.353c6.037-2.485,41.906-24.149,49.72-29.122c7.813-4.972,7.813-8.523,7.813-11.009
		c0-2.486,1.065-23.795,0.356-30.543c-0.356-1.776-2.487-2.13-3.197,0c-1.774,6.038-3.196,24.86-6.037,28.767
		c-4.262,4.973-52.917,35.159-55.758,36.225c-2.842,1.421-5.683-2.84-8.879-2.13c-1.421,0.355-0.355,3.906,3.196,8.168
		C407.453,357.904,410.65,357.193,417.754,354.353z"/>
	<path display="inline" d="M329.677,323.811c3.196,1.776,7.813-4.263,6.038-6.393c-1.776-2.131-15.626-7.458-18.823-11.72
		c-2.486-3.552-3.197-8.168-3.907-13.142c-0.355-2.13-2.841-1.42-2.841,0c-0.355,1.776-0.71,6.394-0.71,7.814
		c0,4.617,1.065,9.589,3.906,12.075C316.181,314.576,327.546,322.39,329.677,323.811z"/>
</g>
<g id="Layer_3_1_">
	<polygon fill="#008500" points="331.58,186.893 377.729,202.275 331.58,156.127 377.729,171.51 347.886,109.979 393.111,156.127 
		438.336,109.979 408.494,171.51 454.643,156.127 408.494,202.275 454.643,186.893 393.111,248.424 	"/>
	<polygon fill="#FFC105" points="350.654,307.801 368.499,325.338 386.343,307.493 368.499,289.958 	"/>
	<path fill="#FFC105" d="M348.194,256.115l20.305,19.997l17.844-17.843l-20.92-20.613
		C358.961,242.271,353.116,248.424,348.194,256.115z"/>
	<path fill="#FFC105" d="M343.578,300.726l17.845-17.844l-18.152-18.152c-3.999,7.999-6.768,17.229-8.306,27.074L343.578,300.726z"
		/>
	<path fill="#FFC105" d="M343.578,314.877l-8.613,8.615c1.538,9.845,4.307,19.073,8.306,27.073l18.152-18.152L343.578,314.877z"/>
	<polygon fill="#FFC105" points="435.566,307.801 417.724,289.958 399.88,307.801 417.724,325.338 	"/>
	<polygon fill="#FFC105" points="375.267,282.881 393.111,300.726 410.955,282.881 393.111,265.345 	"/>
	<path fill="#FFC105" d="M442.643,314.877L424.8,332.722l18.152,18.152c3.998-7.999,6.768-17.229,8.306-27.074L442.643,314.877z"/>
	<path fill="#FFC105" d="M417.724,276.112l19.997-19.997c-4.614-7.691-10.459-13.844-16.921-18.459l-20.612,20.613L417.724,276.112z
		"/>
	<path fill="#FFC105" d="M368.499,339.49l-19.998,19.997c4.923,7.384,10.768,13.537,17.229,18.151l20.612-20.612L368.499,339.49z"/>
	<path fill="#FFC105" d="M393.111,364.103l-18.768,18.767c5.846,2.461,11.999,4,18.768,4s12.921-1.539,18.766-4L393.111,364.103z"/>
	<path fill="#FFC105" d="M442.643,300.726l8.615-8.615c-1.538-9.845-4.308-19.074-8.306-27.073L424.8,283.189L442.643,300.726z"/>
	<polygon fill="#FFC105" points="410.955,332.413 393.111,314.877 375.267,332.722 393.111,350.565 	"/>
	<path fill="#FFC105" d="M438.029,359.487l-20.306-19.997l-17.844,17.844l20.92,20.305
		C427.262,373.024,433.106,366.871,438.029,359.487z"/>
</g>
</svg>
