<?xml version="1.0" encoding="utf-8"?>
<!-- Generator: Adobe Illustrator 16.0.0, SVG Export Plug-In . SVG Version: 6.00 Build 0)  -->
<!DOCTYPE svg PUBLIC "-//W3C//DTD SVG 1.1//EN" "http://www.w3.org/Graphics/SVG/1.1/DTD/svg11.dtd">
<svg version="1.1" id="Layer_1" xmlns="http://www.w3.org/2000/svg" xmlns:xlink="http://www.w3.org/1999/xlink" x="0px" y="0px"
	 width="792px" height="612px" viewBox="0 0 792 612" enable-background="new 0 0 792 612" xml:space="preserve">
<path fill="#4C4C4C" d="M433.448,363.795c-81.117,0-146.88-65.763-146.88-146.88c0-81.122,65.763-146.88,146.88-146.88
	c81.116,0,146.88,65.758,146.88,146.88C580.328,298.032,514.564,363.795,433.448,363.795z M433.448,89.619
	c-70.302,0-127.296,56.994-127.296,127.296c0,70.302,56.995,127.296,127.296,127.296c70.301,0,127.296-56.995,127.296-127.296
	S503.75,89.619,433.448,89.619z"/>
<path fill="#F4788A" d="M433.448,216.915c0-46.806,0-92.603,0-107.712c23.719,0.297,48.552,7.964,66.386,22.887L433.448,216.915z"/>
</svg>
