<?xml version="1.0" encoding="utf-8"?>
<!-- Generator: Adobe Illustrator 16.0.0, SVG Export Plug-In . SVG Version: 6.00 Build 0)  -->
<!DOCTYPE svg PUBLIC "-//W3C//DTD SVG 1.1//EN" "http://www.w3.org/Graphics/SVG/1.1/DTD/svg11.dtd">
<svg version="1.1" xmlns="http://www.w3.org/2000/svg" xmlns:xlink="http://www.w3.org/1999/xlink" x="0px" y="0px" width="792px"
	 height="612px" viewBox="0 0 792 612" enable-background="new 0 0 792 612" xml:space="preserve">
<g id="Layer_2">
	<path fill="#CC0003" d="M394.789,204.928c-1.578,0-2.747,0.858-3.458,1.582c-1.745,1.768-2.779,4.675-2.77,7.782
		c0.009,5.185,2.931,9.434,6.515,9.466l0.035,1.446l0.003-1.446c1.306,0,2.559-0.579,3.619-1.671
		c1.688-1.749,2.657-4.586,2.595-7.596C401.221,209.352,398.227,204.972,394.789,204.928z"/>
	<path fill="#CC0003" d="M327.601,206.649c-3.824,0.243-7.115,4.711-7.466,9.768c-0.193,2.805,0.563,5.355,2.078,6.998
		c0.984,1.069,2.196,1.634,3.505,1.634v1.423h0.003l0.196-1.429c3.599-0.167,6.74-4.503,6.995-9.659
		c0.144-2.946-0.679-5.672-2.202-7.289C330.092,207.437,329.045,206.649,327.601,206.649z"/>
	<path fill="#CC0003" d="M411.836,205.086l0.129,1.435c0.002,0,0.002,0,0.002,0v-1.432c1.553,0,2.681-0.855,3.354-1.57
		c1.581-1.689,2.431-4.477,2.27-7.451c-0.286-5.176-3.376-9.662-6.752-9.8c-0.003,0-0.009,0-0.011,0
		c-1.523,0-2.549,0.771-3.169,1.417c-1.636,1.701-2.563,4.585-2.479,7.721C405.326,200.633,408.313,204.978,411.836,205.086z"/>
	<path fill="#CC0003" d="M377.116,185.74c-3.35,0.036-6.249,4.434-6.362,9.602c-0.067,3.077,0.898,5.961,2.594,7.718
		c0.711,0.734,1.892,1.61,3.469,1.61v1.449l0.029-1.449c3.499-0.021,6.339-4.275,6.324-9.481
		C383.15,190.068,380.38,185.74,377.116,185.74z"/>
	<path fill="#CC0003" d="M412.225,224.258c-0.003,0-0.003,0-0.006,0c-1.688,0-2.875,0.873-3.592,1.604
		c-1.689,1.728-2.68,4.568-2.645,7.592c0.063,5.175,3.051,9.426,6.657,9.479l0.076,1.443v-1.441c1.354,0,2.638-0.594,3.721-1.712
		c1.664-1.719,2.615-4.482,2.549-7.394C418.871,228.726,415.773,224.343,412.225,224.258z"/>
	<path fill="#CC0003" d="M345.549,186.792c-3.627,0.208-6.819,4.735-7.182,9.891c-0.213,2.901,0.565,5.616,2.084,7.268
		c0.931,1.018,2.076,1.554,3.303,1.554v1.423h0.003l0.182-1.429c3.537-0.146,6.597-4.523,6.831-9.759
		c0.134-3.086-0.72-5.917-2.287-7.572C347.886,187.544,346.896,186.792,345.549,186.792z"/>
	<path fill="#CC0003" d="M360.145,205.167c-3.583,0.097-6.667,4.518-6.846,9.651c-0.096,2.948,0.826,5.736,2.469,7.455
		c1.042,1.089,2.284,1.666,3.598,1.666l-0.003,1.438l0,0l0.085-1.44c3.578-0.068,6.549-4.354,6.628-9.551
		c0.047-3.08-0.931-5.953-2.618-7.684C362.777,206.002,361.645,205.167,360.145,205.167z"/>
	<path fill="#CC0003" d="M475.033,268.107c-1.553-3.511-4.271-6.594-7.631-9.053c9.94-20.578,11.58-42.28,1.295-68.62
		c-7.99-20.461-25.021-28.076-41.668-29.268c0.084,0.006,0.172,0.003,0.258,0.009c8.552-9.285,13.801-21.649,13.801-35.273
		c-12.654,0-24.251,4.5-33.29,11.981c0.041-13.422-5.054-26.855-15.293-37.094c-10.239,10.242-15.331,23.675-15.292,37.097
		c-9.042-7.484-20.642-11.987-33.294-11.987c0,13.627,5.25,25.989,13.803,35.273c0.084-0.006,0.17-0.003,0.251-0.009
		c-16.651,1.195-33.677,8.807-41.662,29.268c-7.13,18.245-8.535,34.263-5.432,49.226c-3.756,2.825-6.567,6.148-8.251,9.958
		c-3.101,7.015-3.745,18.725,10.772,34.661c2.445,2.682,4.857,5.35,7.25,7.99c2.767,3.057,5.487,6.055,8.181,9.003
		c-5.979,7.875-9.738,23.498-9.738,29.692c0,9.681,7.876,17.551,17.559,17.551s17.559-7.87,17.559-17.551
		c0-1.068-0.123-2.441-0.337-3.987c13.718,12.56,26.595,20.811,39.071,20.811c9.764,0,19.776-5.063,30.24-13.275v10.464
		c-6.292,7.616-10.273,24.024-10.273,30.404c0,9.683,7.873,17.556,17.553,17.556c9.685,0,17.557-7.873,17.557-17.556
		c0-6.406-4.021-22.938-10.361-30.512c-0.316-3.104-1.307-17.06,4.562-27.813c7.408-7.555,15.07-16.004,23.062-24.834
		c2.375-2.624,4.77-5.274,7.196-7.938C476.623,279.716,477.557,273.82,475.033,268.107z M463.061,246.633
		c-1.149-1.203-2.545-1.982-4.041-2.049c-0.003,0-0.015,0-0.018,0c-1.505,0-2.729,0.553-3.748,1.602
		c-1.616,1.645-2.522,4.236-2.498,7.1c0,0.056,0.012,0.106,0.017,0.161c-0.939-0.102-1.89-0.17-2.839-0.17
		c-4.717,0-11.276,1.233-17.905,6.158c1.313-1.71,2.078-4.014,2.052-6.541c-0.044-5.001-3.118-9.317-6.723-9.417c0,0,0,0-0.003,0
		c-1.427,0-2.677,0.571-3.736,1.652c-1.678,1.704-2.67,4.482-2.652,7.434c0.029,5.124,2.989,9.329,6.601,9.373l0.059,1.332
		c-0.114,0.118-0.234,0.205-0.348,0.328c-3.066,3.212-5.808,4.816-8.375,4.995c-0.82-3.724-3.31-6.55-6.217-6.583
		c-1.287,0-2.482,0.545-3.495,1.453c-2.192-2.125-4.469-4.702-6.885-7.463c-0.276-0.313-0.563-0.647-0.85-0.966
		c0.186-0.861,0.311-1.745,0.309-2.658c-0.021-5.075-3.043-9.387-6.605-9.414c-1.309,0-2.553,0.568-3.616,1.599
		c-2.723-2.539-5.716-4.972-9.007-7.147c0.425-1.242,0.679-2.615,0.676-4.085c-0.006-5.095-2.951-9.398-6.435-9.398
		c-3.063,0.018-5.719,3.288-6.404,7.496c-4.746-1.582-10.008-2.524-15.901-2.524c-1.971,0-3.886,0.05-5.769,0.128
		c-0.43-1.106-0.998-2.099-1.73-2.854c-0.7-0.72-1.868-1.581-3.435-1.581c-2.649,0.091-4.989,2.36-6.181,5.481
		c-7.036,1.019-13.237,2.68-18.417,4.958c-2.155-13.158-0.254-26.542,5.551-41.398c0.858-2.199,1.854-4.175,2.934-6.003
		c0.24,0.05,0.486,0.083,0.741,0.083l0.308-0.012c3.288-0.257,6.43-4.553,7.06-9.495c6.602-5.288,14.484-7.504,21.769-8.187
		c-1.239,1.815-2.1,4.269-2.257,6.852c-0.188,3.036,0.635,5.859,2.202,7.545c0.633,0.679,1.687,1.491,3.136,1.491v1.431h0.003
		l0.129-1.431c3.355-0.112,6.304-4.559,6.442-9.716c0.062-2.404-0.433-4.649-1.368-6.341c9.677,0.424,18.004,2.957,22.838,5.381
		c-0.012,0.275-0.062,0.536-0.062,0.814c0.021,5.136,2.861,9.519,6.199,9.574l0.064,1.441v-1.441c1.461,0,2.55-0.822,3.209-1.514
		c1.646-1.733,2.556-4.626,2.438-7.736c-0.035-0.898-0.174-1.759-0.354-2.594c5.03-1.95,12.075-3.66,20.021-3.943
		c-1.228,1.666-1.875,4.204-1.697,7.036c0.324,5.168,3.473,9.7,6.863,9.896l0.229,0.006c1.415,0,2.407-0.775,2.99-1.425
		c1.439-1.608,2.129-4.322,1.842-7.253c-0.315-3.226-1.742-6.281-3.561-8.16c6.893,0.507,14.414,2.342,20.938,6.84
		c-0.035,0.746-0.018,1.525,0.082,2.339c0.647,5.203,4.012,9.727,7.508,10.084c0.138,0.014,0.277,0.02,0.412,0.02
		c0.92,0,1.713-0.333,2.381-0.951c0.938,1.657,1.818,3.417,2.582,5.367C468.023,212.866,469.004,229.634,463.061,246.633z"/>
	<path fill="#CC0003" d="M425.966,205.885c-0.005,0-0.009,0-0.015,0c-1.669,0-2.75,0.808-3.396,1.487
		c-1.592,1.667-2.479,4.457-2.375,7.464c0.177,5.186,3.248,9.504,6.853,9.63l0.154,1.432h0.004v-1.429
		c1.297,0,2.513-0.565,3.517-1.636c1.558-1.664,2.396-4.36,2.243-7.215C432.674,210.511,429.477,206.058,425.966,205.885z"/>
	<path fill="#CC0003" d="M456.619,207.905c-0.12-0.009-0.24-0.015-0.361-0.015c-1.121,0-2.16,0.483-3.003,1.396
		c-1.433,1.549-2.173,4.175-1.982,7.024c0.35,5.11,3.577,9.443,7.188,9.654l0.271,0.006c1.313,0,2.504-0.554,3.454-1.604
		c1.427-1.579,2.105-4.023,1.867-6.705C463.611,212.684,460.207,208.216,456.619,207.905z"/>
	<path fill="#CC0003" d="M444.049,225.456c-0.009,0-0.015,0-0.022,0c-1.458,0-2.617,0.533-3.584,1.54
		c-1.572,1.64-2.459,4.351-2.375,7.259c0.157,5.115,3.241,9.367,6.875,9.486l0.146,1.432h0.004v-1.432
		c1.367,0,2.646-0.588,3.703-1.707c1.575-1.664,2.412-4.216,2.293-7.003C450.883,230.032,447.659,225.648,444.049,225.456z"/>
	<path fill="#CC0003" d="M443.221,206.6l0.271,0.009c1.209,0,2.313-0.521,3.19-1.508c1.427-1.599,2.08-4.131,1.789-6.951
		c-0.522-5.103-3.889-9.668-7.354-9.97c-0.113-0.009-0.226-0.015-0.336-0.015c-1.045,0-1.982,0.442-2.779,1.312
		c-1.443,1.572-2.175,4.289-1.958,7.267C436.434,201.95,439.654,206.371,443.221,206.6z"/>
</g>
<g id="Layer_3">
	<path fill="#CC0003" d="M418.697,179.641c1.043,3.921,3.646,6.965,6.411,7.125l0.229,0.006c1.415,0,2.407-0.775,2.99-1.425
		c1.439-1.608,2.129-4.322,1.842-7.253c-0.004-0.04-0.013-0.08-0.017-0.12c-3.198,0.74-6.432,1.294-9.713,1.524
		C419.861,179.539,419.28,179.587,418.697,179.641z"/>
	<path fill="#008500" d="M407.798,137.883c0.041-13.422-5.054-26.855-15.293-37.094c-10.239,10.242-15.331,23.675-15.292,37.097
		c-9.042-7.484-20.642-11.987-33.294-11.987c0,13.627,5.25,25.989,13.803,35.273c0.084-0.006,0.17-0.003,0.251-0.009
		c-0.206,0.015-0.412,0.034-0.618,0.052c0.034,0.044,0.073,0.077,0.106,0.123c0.025,0.035,0.056,0.068,0.084,0.102
		c9.213,4.721,18.597,8.551,28.761,10.292c6.03-0.208,12.663,0.044,18.355-1.955c6.112-2.146,13.522-3.23,19.01-6.739
		c1.627-1.041,3.131-2.112,4.67-3.061c7.922-9.139,12.746-21.025,12.746-34.075C428.434,125.902,416.837,130.402,407.798,137.883z"
		/>
	<path fill="#CC0003" d="M438.077,163c-0.576,0.751-1.436,1.312-2.577,1.457c-3.086,0.391-5.563,3.399-8.172,4.838
		c-0.574,0.317-1.154,0.623-1.741,0.917c0.309,0.335,0.55,0.717,0.694,1.138c0.424-0.09,0.85-0.172,1.271-0.268
		c-0.301-0.414-0.612-0.806-0.943-1.148c1.282,0.094,2.585,0.235,3.9,0.43c4.895-1.258,9.699-2.827,14.527-4.357
		c0.35-0.111,0.677-0.154,0.993-0.169C443.455,164.653,440.788,163.725,438.077,163z"/>
	<path fill="#CC0003" d="M392.932,181.341c-1.229-0.155-2.462-0.353-3.697-0.573c1.093,2.839,3.097,4.816,5.33,4.854l0.064,1.441
		v-1.441c1.461,0,2.55-0.822,3.209-1.514c0.637-0.669,1.159-1.516,1.559-2.477C397.229,181.681,395.072,181.61,392.932,181.341z"/>
</g>
<g id="Layer_5">
	<path fill="#935851" d="M475.033,268.107c-1.886-4.269-5.35-7.624-9.393-9.871c-8.642-4.804-18.163-5.939-27.441-1.995
		c-3.72,1.582-6.792,4.17-9.706,6.912c-1.059,0.996-2.124,1.991-3.294,2.856c-2.361,1.745-5.093,2.838-8.066,2.374
		c-5.278-0.824-8.615-5.429-11.664-9.362c-2.908-3.752-6.27-7.12-9.741-10.348c-3.739-3.477-7.469-7.225-11.621-10.209
		c-2.355-1.692-4.885-3.127-7.502-4.371c-4.059-1.928-8.254-3.706-12.682-4.578c-6.299-1.24-12.768-0.946-19.121-0.346
		c-6.138,0.58-12.252,1.285-18.23,2.841c-3.38,0.88-6.68,2.113-9.775,3.742c-3.827,2.014-7.417,4.596-10.275,7.861
		c-1.542,1.762-2.943,3.854-3.893,6.001c-3.101,7.015-3.745,18.725,10.772,34.661c2.445,2.682,4.857,5.35,7.25,7.99
		c2.767,3.057,5.487,6.055,8.181,9.003c-5.979,7.875-9.738,23.498-9.738,29.692c0,9.681,7.876,17.551,17.559,17.551
		s17.559-7.87,17.559-17.551c0-1.068-0.123-2.441-0.337-3.987c13.718,12.56,26.595,20.811,39.071,20.811
		c9.764,0,19.776-5.063,30.24-13.275v10.464c-6.292,7.616-10.273,24.024-10.273,30.404c0,9.683,7.873,17.556,17.553,17.556
		c9.685,0,17.557-7.873,17.557-17.556c0-6.406-4.021-22.938-10.361-30.512c-0.316-3.104-1.307-17.06,4.562-27.813
		c7.408-7.555,15.07-16.004,23.062-24.834c2.375-2.624,4.77-5.274,7.196-7.938C476.623,279.716,477.557,273.82,475.033,268.107z"/>
</g>
</svg>
