<?xml version="1.0" encoding="utf-8"?>
<!-- Generator: Adobe Illustrator 16.0.0, SVG Export Plug-In . SVG Version: 6.00 Build 0)  -->
<!DOCTYPE svg PUBLIC "-//W3C//DTD SVG 1.1//EN" "http://www.w3.org/Graphics/SVG/1.1/DTD/svg11.dtd">
<svg version="1.1" id="Layer_2" xmlns="http://www.w3.org/2000/svg" xmlns:xlink="http://www.w3.org/1999/xlink" x="0px" y="0px"
	 width="792px" height="612px" viewBox="0 0 792 612" enable-background="new 0 0 792 612" xml:space="preserve">
<g>
	<g>
		<path fill="#4DD6D6" d="M310.364,218.477c-0.951,0-2.128-0.483-2.128-2.129c0-1.656,0-88.514,0-88.514
			c0-15.581,12.747-28.334,28.328-28.334c0,0,87.167,0,88.513,0c1.344,0,2.119,0.833,2.119,2.129v41.626
			c0,0.576,0.189,0.812,0.4,0.812c0.088,0,0.186-0.056,0.257-0.158c4.453-5.842,11.494-9.632,19.401-9.632
			c13.474,0,24.4,10.927,24.4,24.395c0,13.468-10.928,24.39-24.4,24.39c-7.979,0-15.064-3.846-19.52-9.78
			c-0.082-0.113-0.2-0.262-0.319-0.262c-0.117,0-0.226,0.185-0.226,0.802v43.462c0,0.756-0.511,1.188-1.178,1.188
			c-0.67,0-43.474,0-43.474,0c-1.146,0-0.771-0.371-0.535-0.55c5.944-4.438,9.786-11.523,9.786-19.52
			c0-13.473-10.927-24.395-24.405-24.395c-13.462,0-24.38,10.922-24.38,24.395c0,7.918,3.785,14.948,9.626,19.401
			c0.303,0.227,0.201,0.668-0.653,0.668C351.984,218.477,311.305,218.477,310.364,218.477"/>
	</g>
	<path fill="#75FDFF" d="M389.256,316.632c-2.124,7.028-7.375,13.046-14.8,15.826c-12.593,4.733-26.657-1.665-31.388-14.269
		c-4.726-12.625,1.656-26.684,14.275-31.403c7.487-2.803,15.457-1.697,21.716,2.308c0.256,0.16,0.724,0.372,0.318-0.704
		c0,0-15.026-40.069-15.268-40.696c-0.231-0.627-0.797-0.961-1.517-0.694l-40.702,15.262c-1.069,0.401-0.863-0.051-0.699-0.319
		c3.996-6.248,5.111-14.233,2.299-21.706c-4.726-12.608-18.785-19-31.394-14.274c-12.608,4.725-18.995,18.784-14.269,31.403
		c2.782,7.411,8.803,12.666,15.828,14.784c0.37,0.108,0.411,0.551-0.391,0.854l-38.963,14.614c-1.208,0.452-1.718,1.485-1.234,2.73
		c0.468,1.244,31.064,82.867,31.064,82.867c5.467,14.594,21.88,22.055,36.475,16.584c0,0,81.324-30.504,82.882-31.085
		c1.548-0.569,1.574-1.846,1.233-2.729c-0.329-0.874-14.614-38.969-14.614-38.969C389.801,316.211,389.359,316.271,389.256,316.632z
		"/>
	<g>
		<path fill="#13BCBC" d="M429.329,337.421c-1.341,0-2.134-0.822-2.134-2.117v-41.622c0-0.581-0.186-0.813-0.392-0.813
			c-0.098,0-0.189,0.062-0.263,0.16c-4.458,5.836-11.486,9.621-19.406,9.621c-13.478,0-24.379-10.917-24.379-24.384
			c0-13.467,10.902-24.396,24.379-24.396c7.981,0,15.077,3.847,19.524,9.781c0.084,0.118,0.217,0.263,0.31,0.263
			c0.123,0,0.231-0.191,0.231-0.792v-43.473c0-0.756,0.519-1.178,1.183-1.178c0.663,0,43.467,0,43.467,0
			c1.146,0,0.792,0.345,0.539,0.535c-5.933,4.448-9.778,11.535-9.778,19.52c0,13.478,10.917,24.395,24.385,24.395
			s24.39-10.917,24.39-24.395c0-7.908-3.778-14.938-9.633-19.391c-0.302-0.227-0.194-0.658,0.664-0.658c0,0,40.675,0,41.627,0
			c0.946,0,2.113,0.463,2.113,2.113c0,1.646,0,88.508,0,88.508c0,15.586-12.747,28.323-28.317,28.323
			C517.839,337.421,430.657,337.421,429.329,337.421"/>
	</g>
</g>
</svg>
