<?xml version="1.0" encoding="utf-8"?>
<!-- Generator: Adobe Illustrator 16.0.0, SVG Export Plug-In . SVG Version: 6.00 Build 0)  -->
<!DOCTYPE svg PUBLIC "-//W3C//DTD SVG 1.1//EN" "http://www.w3.org/Graphics/SVG/1.1/DTD/svg11.dtd">
<svg version="1.1" id="Layer_1" xmlns="http://www.w3.org/2000/svg" xmlns:xlink="http://www.w3.org/1999/xlink" x="0px" y="0px"
	 width="792px" height="612px" viewBox="0 0 792 612" enable-background="new 0 0 792 612" xml:space="preserve">
<path fill="#4C4C4C" d="M431.99,124.417l-0.044,0.137c-10.692-2.913-21.886-4.602-33.498-4.602
	c-70.302,0-127.296,56.994-127.296,127.296c0,70.302,56.995,127.296,127.296,127.296c70.301,0,127.296-56.994,127.296-127.296
	c0-6.492-0.643-12.818-1.576-19.05l0.239-0.034c-0.22-0.769-0.372-1.562-0.393-2.399c-0.122-5.405,4.162-9.89,9.572-10.012
	c5.404-0.122,9.89,4.162,10.007,9.572c0.005,0.137-0.028,0.264-0.028,0.396c1.043,7.045,1.763,14.194,1.763,21.528
	c0,81.117-65.763,146.88-146.88,146.88s-146.88-65.763-146.88-146.88c0-81.122,65.763-146.88,146.88-146.88
	c12.563,0,24.689,1.762,36.323,4.749c0.97,0.083,1.942,0.269,2.902,0.661c4.999,2.066,7.373,7.794,5.309,12.788
	C441.156,122.978,436.49,125.333,431.99,124.417z"/>
<path fill="#F4788A" d="M398.448,354.96c0-46.13,0-186.694,0-215.424c59.485,0,107.712,48.226,107.712,107.712
	C506.16,306.734,457.935,354.96,398.448,354.96z"/>
<g>
	<path fill="#CC0003" d="M496.368,217.976c-8.156,0-14.792-6.636-14.792-14.792v-24.376H457.2c-8.156,0-14.792-6.636-14.792-14.792
		c0-8.156,6.636-14.792,14.792-14.792h24.376v-24.376c0-8.156,6.636-14.792,14.792-14.792s14.792,6.636,14.792,14.792v24.376h24.376
		c8.156,0,14.792,6.636,14.792,14.792c0,8.156-6.636,14.792-14.792,14.792H511.16v24.376
		C511.16,211.34,504.524,217.976,496.368,217.976z"/>
	<path fill="#FFFFFF" d="M496.368,115.056c5.405,0,9.792,4.387,9.792,9.792v29.376h29.376c5.405,0,9.792,4.387,9.792,9.792
		c0,5.405-4.387,9.792-9.792,9.792H506.16v29.376c0,5.405-4.387,9.792-9.792,9.792s-9.792-4.387-9.792-9.792v-29.376H457.2
		c-5.405,0-9.792-4.387-9.792-9.792c0-5.405,4.387-9.792,9.792-9.792h29.376v-29.376
		C486.576,119.443,490.963,115.056,496.368,115.056 M496.368,105.056c-10.913,0-19.792,8.878-19.792,19.792v19.376H457.2
		c-10.913,0-19.792,8.878-19.792,19.792s8.879,19.792,19.792,19.792h19.376v19.376c0,10.914,8.879,19.792,19.792,19.792
		s19.792-8.878,19.792-19.792v-19.376h19.376c10.913,0,19.792-8.878,19.792-19.792s-8.879-19.792-19.792-19.792H516.16v-19.376
		C516.16,113.935,507.281,105.056,496.368,105.056L496.368,105.056z"/>
</g>
</svg>
