<?xml version="1.0" encoding="utf-8"?>
<!-- Generator: Adobe Illustrator 16.0.0, SVG Export Plug-In . SVG Version: 6.00 Build 0)  -->
<!DOCTYPE svg PUBLIC "-//W3C//DTD SVG 1.1//EN" "http://www.w3.org/Graphics/SVG/1.1/DTD/svg11.dtd">
<svg version="1.1" xmlns="http://www.w3.org/2000/svg" xmlns:xlink="http://www.w3.org/1999/xlink" x="0px" y="0px" width="792px"
	 height="612px" viewBox="0 0 792 612" enable-background="new 0 0 792 612" xml:space="preserve">
<g id="Layer_1">
	<g id="Layer_3">
		<path fill="#CC0003" d="M544.213,369.027l-26.539-190.843c-0.823-5.896-5.863-10.285-11.813-10.285h-87.162
			c10.108-6.667,16.789-18.109,16.789-31.125c0-20.587-16.69-37.274-37.275-37.274c-20.587,0-37.274,16.687-37.274,37.274
			c0,13.016,6.68,24.458,16.789,31.125h-87.162c-5.952,0-10.994,4.39-11.814,10.285l-26.54,190.843
			c-0.474,3.418,0.555,6.874,2.818,9.474c2.267,2.604,5.546,4.098,8.997,4.098h268.375c3.448,0,6.729-1.493,8.995-4.098
			C543.658,375.901,544.688,372.445,544.213,369.027z M376.142,132.116h-0.036c-0.955,5.964-10.022,7.538-7.157-1.419
			c1.837-6.646,9.393-20.101,26.023-20.101C384.619,114.558,376.691,126.152,376.142,132.116z M264.024,370.672l15.619-112.321
			c3.954-1,12.146-12.981,29.113-12.981c20.871,0,17.889,59.571,44.727,59.571c17.891,0,18.729-35.133,44.729-35.133
			c29.82,0,17.188,20.044,41.765,20.044c23.839-0.003,23.839-41.347,41.741-41.347c20.863,0,11.916,36.186,32.79,36.186
			c2.267,0,4.143-0.358,5.731-0.981l12.161,86.963L264.024,370.672L264.024,370.672z"/>
	</g>
	<g id="Layer_4">
	</g>
</g>
<g id="Layer_3_3_">
	<g id="Layer_3_2_">
		<path fill="#F4788A" d="M544.213,369.027l-16.732-120.32c-0.105,0.07-0.209,0.145-0.314,0.214
			c-1.159,1.935-2.814,3.748-5.027,5.313c-0.073,0.052-0.147,0.101-0.221,0.152c1.361,9.216,0.785,18.264-4.645,27.082
			c-0.645,1.046-1.328,2.117-2.046,3.194c1.94-0.069,3.599-0.398,5.012-0.952l12.161,86.963H264.024v-0.001l15.619-112.321
			c2.926-0.74,8.177-7.489,17.582-10.95c-0.092-1.284,0.024-2.584,0.321-3.86c-1.109-0.316-2.214-0.645-3.313-0.996
			c-7.782-2.485-16.205-5.666-22.94-10.733l-19.082,137.215c-0.474,3.418,0.555,6.874,2.818,9.474
			c2.267,2.604,5.546,4.098,8.997,4.098h268.375c3.448,0,6.729-1.493,8.995-4.098C543.658,375.901,544.688,372.445,544.213,369.027z
			"/>
	</g>
</g>
<g id="Layer_2">
	<g id="Layer_3_1_">
		<path fill="#935851" d="M530.82,272.709c-0.871-5.726-1.591-11.454-2.393-17.192c-1.094-7.833-2.18-15.667-3.269-23.501
			c-1.137-8.177-2.274-16.354-3.411-24.532c-0.92-6.626-1.843-13.253-2.764-19.879c-0.427-3.071-0.854-6.143-1.281-9.214
			c-0.01-0.069-0.02-0.138-0.029-0.208c-0.823-5.896-5.863-10.285-11.813-10.285c-1.972,0-3.944,0-5.917,0c-4.979,0-9.96,0-14.94,0
			c-6.587,0-13.174,0-19.761,0c-6.776,0-13.553,0-20.329,0c-9.377,0-18.754-0.062-28.13-0.034c-2.699,0.008-5.397,0.026-8.096,0.062
			c-7.975,0.105-15.949-0.01-23.924,0.09c-5.684,0.071-11.366-0.119-17.049-0.119c-3.244,0.01-6.488,0.002-9.731-0.002
			c-3.872-0.005-7.743,0.006-11.615,0.006c-4.026,0.001-8.052-0.008-12.078-0.006c-4.176,0.002-8.352,0.006-12.528,0.003
			c-3.787-0.003-7.574-0.003-11.36,0c-3.187,0.002-6.374,0-9.561-0.002c-2.334-0.001-4.669,0.003-7.003,0.003
			c-1.003,0-2.006-0.005-3.01-0.002c-0.087,0-0.175,0.001-0.262,0.001c-5.952,0-10.994,4.39-11.814,10.285
			c-1.028,7.395-2.056,14.79-3.085,22.185c-1.819,13.066-3.633,26.134-5.45,39.201c-0.779,5.602-1.362,11.286-2.366,16.853
			c-0.098,0.542,3.445,1.895,3.962,2.058c1.5,0.473,3.059,0.677,4.625,0.531c6.219-0.583,9.946-5.903,14.979-8.859
			c5.268-3.094,11.222-4.781,17.34-4.781c20.871,0,17.889,59.571,44.727,59.571c17.891,0,18.729-35.133,44.729-35.133
			c29.82,0,17.188,20.044,41.765,20.044c23.839-0.003,23.839-41.347,41.741-41.347c20.863,0,11.916,36.186,32.79,36.186
			c1.837,0,4.128-0.358,6.41-1.068C526.319,281.94,531.668,278.282,530.82,272.709z"/>
	</g>
</g>
</svg>
